# Blender 4.3.2
# www.blender.org
mtllib myfurniture_bench.mtl
o Cube
v 0.500000 -0.001643 -0.001467
v 0.500000 -0.101643 -0.001467
v 0.500000 -0.001643 0.498533
v 0.500000 -0.101643 0.498533
v -0.500000 -0.001643 -0.001467
v -0.500000 -0.101643 -0.001467
v -0.500000 -0.001643 0.498533
v -0.500000 -0.101643 0.498533
vn -0.0000 1.0000 -0.0000
vn -0.0000 -0.0000 1.0000
vn -1.0000 -0.0000 -0.0000
vn -0.0000 -1.0000 -0.0000
vn 1.0000 -0.0000 -0.0000
vn -0.0000 -0.0000 -1.0000
vt 1.398925 -1.930907
vt 1.398925 -0.955419
vt 0.423437 -0.955419
vt 0.423438 -1.930907
vt 1.398925 0.020069
vt 0.423437 0.020068
vt 0.423437 -0.955419
vt 1.398925 -0.955419
vt 1.398925 0.995556
vt 0.423438 0.995556
vt 0.423438 0.020068
vt 1.398925 0.020069
vt -0.552050 0.995557
vt -0.552051 1.971044
vt -1.527538 1.971044
vt -1.527538 0.995557
vt 0.423437 1.971044
vt -0.552050 1.971044
vt -0.552050 0.995557
vt 0.423438 0.995557
vt 1.398925 1.971044
vt 0.423437 1.971044
vt 1.398925 0.995557
s 0
usemtl Material
f 1/1/1 5/2/1 7/3/1 3/4/1
f 4/5/2 3/6/2 7/7/2 8/8/2
f 8/9/3 7/10/3 5/11/3 6/12/3
f 6/13/4 2/14/4 4/15/4 8/16/4
f 2/17/5 1/18/5 3/19/5 4/20/5
f 6/21/6 5/22/6 1/10/6 2/23/6
o Cube.001
v 0.301819 -0.096948 -0.001467
v 0.401819 -0.096948 -0.001467
v 0.301819 -0.096948 0.498533
v 0.401819 -0.096948 0.498533
v 0.301819 -0.496948 -0.001467
v 0.401819 -0.496948 -0.001467
v 0.301819 -0.496948 0.498533
v 0.401819 -0.496948 0.498533
vn -1.0000 -0.0000 -0.0000
vn -0.0000 -0.0000 1.0000
vn -0.0000 -1.0000 -0.0000
vn 1.0000 -0.0000 -0.0000
vn -0.0000 1.0000 -0.0000
vn -0.0000 -0.0000 -1.0000
vt 2.374413 -1.930907
vt 2.374413 -0.955419
vt 1.398925 -0.955419
vt 1.398926 -1.930907
vt 2.374413 0.020069
vt 1.398925 0.020069
vt 1.398925 -0.955419
vt 2.374413 -0.955419
vt 2.374413 0.995556
vt 1.398926 0.995556
vt 1.398926 0.020069
vt 2.374413 0.020069
vt 2.374413 0.995557
vt 2.374413 1.971044
vt 1.398925 1.971044
vt 1.398926 0.995557
vt -0.552050 2.946532
vt -1.527538 2.946532
vt -1.527538 1.971044
vt -0.552050 1.971044
vt 0.423437 2.946532
vt -0.552050 2.946532
vt -0.552050 1.971044
vt 0.423438 1.971044
s 0
usemtl Material
f 9/24/7 13/25/7 15/26/7 11/27/7
f 12/28/8 11/29/8 15/30/8 16/31/8
f 16/32/9 15/33/9 13/34/9 14/35/9
f 14/36/10 10/37/10 12/38/10 16/39/10
f 10/40/11 9/41/11 11/42/11 12/43/11
f 14/44/12 13/45/12 9/46/12 10/47/12
o Cube.002
v -0.401819 -0.096948 -0.001467
v -0.301819 -0.096948 -0.001467
v -0.401819 -0.096948 0.498533
v -0.301819 -0.096948 0.498533
v -0.401819 -0.496948 -0.001467
v -0.301819 -0.496948 -0.001467
v -0.401819 -0.496948 0.498533
v -0.301819 -0.496948 0.498533
vn -1.0000 -0.0000 -0.0000
vn -0.0000 -0.0000 1.0000
vn -0.0000 -1.0000 -0.0000
vn 1.0000 -0.0000 -0.0000
vn -0.0000 1.0000 -0.0000
vn -0.0000 -0.0000 -1.0000
vt -0.552050 -1.930907
vt -0.552050 -0.955419
vt -1.527538 -0.955419
vt -1.527538 -1.930907
vt -0.552051 0.020069
vt -1.527538 0.020069
vt -1.527538 -0.955419
vt -0.552050 -0.955419
vt 0.423437 -0.955419
vt -0.552050 -0.955419
vt -0.552050 -1.930907
vt 0.423438 -1.930907
vt 0.423438 -0.955419
vt 0.423437 0.020069
vt -0.552050 0.020068
vt -0.552050 -0.955419
vt -0.552051 0.995556
vt -1.527538 0.995556
vt -1.527538 0.020069
vt -0.552050 0.020069
vt 0.423438 0.995556
vt -0.552050 0.995556
vt -0.552050 0.020069
vt 0.423438 0.020069
s 0
usemtl Material
f 17/48/13 21/49/13 23/50/13 19/51/13
f 20/52/14 19/53/14 23/54/14 24/55/14
f 24/56/15 23/57/15 21/58/15 22/59/15
f 22/60/16 18/61/16 20/62/16 24/63/16
f 18/64/17 17/65/17 19/66/17 20/67/17
f 22/68/18 21/69/18 17/70/18 18/71/18
