# Blender 4.3.2
# www.blender.org
mtllib myfurniture_cabinet.mtl
o Cube
v 0.500000 0.500706 -0.500000
v 0.500000 0.440706 -0.500000
v 0.500000 0.500706 0.500000
v 0.500000 0.440706 0.500000
v -0.500000 0.500706 -0.500000
v -0.500000 0.440706 -0.500000
v -0.500000 0.500706 0.500000
v -0.500000 0.440706 0.500000
vn -0.0000 1.0000 -0.0000
vn -0.0000 -0.0000 1.0000
vn -1.0000 -0.0000 -0.0000
vn -0.0000 -1.0000 -0.0000
vn 1.0000 -0.0000 -0.0000
vn -0.0000 -0.0000 -1.0000
vt -0.985219 -2.002379
vt -0.985219 -1.001586
vt -1.986012 -1.001586
vt -1.986012 -2.002379
vt -0.985219 -0.000793
vt -1.986012 -0.000793
vt -1.986012 -1.001586
vt -0.985219 -1.001586
vt -1.986012 1.000000
vt -2.986805 1.000000
vt -2.986805 -0.000793
vt -1.986012 -0.000793
vt 0.015574 -2.002379
vt 0.015574 -1.001586
vt -0.985219 -1.001586
vt -0.985219 -2.002379
vt 0.015574 -0.000793
vt -0.985219 -0.000793
vt -0.985219 1.000000
vt -1.986012 1.000000
vt -0.985219 -0.000793
s 0
usemtl Material
f 1/1/1 5/2/1 7/3/1 3/4/1
f 4/5/2 3/6/2 7/7/2 8/8/2
f 8/9/3 7/10/3 5/11/3 6/12/3
f 6/13/4 2/14/4 4/15/4 8/16/4
f 2/17/5 1/18/5 3/2/5 4/14/5
f 6/19/6 5/20/6 1/12/6 2/21/6
o Cube.001
v 0.436887 0.059587 -0.500000
v 0.436887 -0.000413 -0.500000
v 0.436887 0.059587 0.500000
v 0.436887 -0.000413 0.500000
v -0.440826 0.059587 -0.500000
v -0.440826 -0.000413 -0.500000
v -0.440826 0.059587 0.500000
v -0.440826 -0.000413 0.500000
vn -0.0000 1.0000 -0.0000
vn -0.0000 -0.0000 1.0000
vn -1.0000 -0.0000 -0.0000
vn -0.0000 -1.0000 -0.0000
vn 1.0000 -0.0000 -0.0000
vn -0.0000 -0.0000 -1.0000
vt -2.108397 4.002379
vt -2.986805 4.002379
vt -2.986805 3.001586
vt -2.108397 3.001586
vt -1.229988 3.001586
vt -1.229988 4.002379
vt 0.015574 1.000000
vt -0.985219 1.000000
vt -0.985219 -0.000793
vt 0.015574 -0.000793
vt -0.351579 4.002379
vt -0.351579 3.001586
vt -1.986012 2.000793
vt -2.986805 2.000793
vt -2.986805 1.000000
vt -1.986012 1.000000
vt 0.526830 3.001586
vt 0.526830 4.002379
s 0
usemtl Material
f 9/22/7 13/23/7 15/24/7 11/25/7
f 12/22/8 11/25/8 15/26/8 16/27/8
f 16/28/9 15/29/9 13/30/9 14/31/9
f 14/32/10 10/27/10 12/26/10 16/33/10
f 10/34/11 9/35/11 11/36/11 12/37/11
f 14/32/12 13/33/12 9/38/12 10/39/12
o Cube.002
v 0.436887 -0.338496 -0.500000
v 0.436887 -0.398496 -0.500000
v 0.436887 -0.338496 0.500000
v 0.436887 -0.398496 0.500000
v -0.443515 -0.338496 -0.500000
v -0.443515 -0.398496 -0.500000
v -0.443515 -0.338496 0.500000
v -0.443515 -0.398496 0.500000
vn -0.0000 1.0000 -0.0000
vn -0.0000 -0.0000 1.0000
vn -1.0000 -0.0000 -0.0000
vn -0.0000 -1.0000 -0.0000
vn 1.0000 -0.0000 -0.0000
vn -0.0000 -0.0000 -1.0000
vt 2.790835 1.000000
vt 1.909734 1.000000
vt 1.909734 -0.000793
vt 2.790835 -0.000793
vt 1.909734 2.000793
vt 1.909734 1.000000
vt 2.790835 2.000793
vt 1.016367 -1.001586
vt 0.015574 -1.001586
vt 0.015574 -2.002379
vt 1.016367 -2.002379
vt 2.839979 -1.001586
vt 1.958878 -1.001586
vt 1.958878 -2.002379
vt 2.839979 -2.002379
vt -0.985219 2.000793
vt -1.986012 2.000793
vt -1.986012 1.000000
vt -0.985219 1.000000
vt 1.958878 -0.000793
vt 1.958878 -1.001586
vt 2.839978 -1.001586
vt 2.839978 -0.000793
s 0
usemtl Material
f 17/40/13 21/41/13 23/42/13 19/43/13
f 20/44/14 19/45/14 23/40/14 24/46/14
f 24/47/15 23/48/15 21/49/15 22/50/15
f 22/51/16 18/52/16 20/53/16 24/54/16
f 18/55/17 17/56/17 19/57/17 20/58/17
f 22/59/18 21/60/18 17/61/18 18/62/18
o Cube.003
v 0.439097 0.441764 -0.500000
v 0.499097 0.441764 -0.500000
v 0.439097 0.441764 0.500000
v 0.499097 0.441764 0.500000
v 0.439097 -0.500000 -0.500000
v 0.499097 -0.500000 -0.500000
v 0.439097 -0.500000 0.500000
v 0.499097 -0.500000 0.500000
vn -1.0000 -0.0000 -0.0000
vn -0.0000 -0.0000 1.0000
vn -0.0000 -1.0000 -0.0000
vn 1.0000 -0.0000 -0.0000
vn -0.0000 1.0000 -0.0000
vn -0.0000 -0.0000 -1.0000
vt -2.044295 3.001586
vt -2.986805 3.001586
vt -2.986805 2.000793
vt -2.044295 2.000793
vt 1.016367 -1.001586
vt 1.016367 -2.002379
vt 1.958878 -2.002379
vt 1.958878 -1.001586
vt 1.016367 -0.000793
vt 0.015574 -0.000793
vt 0.015574 -1.001586
vt 1.016367 -1.001586
vt -1.101784 3.001586
vt -1.101784 2.000793
vt 0.015574 2.000793
vt -0.985219 2.000793
vt -0.985219 1.000000
vt 0.015574 1.000000
vt 1.016367 -0.000793
vt 1.958878 -1.001586
vt 1.958878 -0.000793
s 0
usemtl Material
f 25/63/19 29/64/19 31/65/19 27/66/19
f 28/67/20 27/68/20 31/69/20 32/70/20
f 32/71/21 31/72/21 29/73/21 30/74/21
f 30/75/22 26/63/22 28/66/22 32/76/22
f 26/77/23 25/78/23 27/79/23 28/80/23
f 30/81/24 29/74/24 25/82/24 26/83/24
o Cube.004
v -0.503396 0.446329 -0.500000
v -0.443396 0.446329 -0.500000
v -0.503396 0.446329 0.500000
v -0.443396 0.446329 0.500000
v -0.503396 -0.500000 -0.500000
v -0.443396 -0.500000 -0.500000
v -0.503396 -0.500000 0.500000
v -0.443396 -0.500000 0.500000
vn -1.0000 -0.0000 -0.0000
vn -0.0000 -0.0000 1.0000
vn -0.0000 -1.0000 -0.0000
vn 1.0000 -0.0000 -0.0000
vn -0.0000 1.0000 -0.0000
vn -0.0000 -0.0000 -1.0000
vt 1.909734 1.000000
vt 0.962654 1.000000
vt 0.962654 -0.000793
vt 1.909734 -0.000793
vt 0.015574 2.000793
vt 0.015574 1.000000
vt 0.962654 1.000000
vt 0.962654 2.000793
vt -1.986012 -1.001586
vt -2.986805 -1.001586
vt -2.986805 -2.002379
vt -1.986012 -2.002379
vt 1.909734 2.000793
vt 0.962654 2.000793
vt 0.962654 1.000000
vt 1.909734 1.000000
vt -1.986012 -0.000793
vt -2.986805 -0.000793
vt -2.986805 -1.001586
vt -1.986012 -1.001586
vt 0.015574 -0.000793
vt 0.962654 -0.000793
s 0
usemtl Material
f 33/84/25 37/85/25 39/86/25 35/87/25
f 36/88/26 35/89/26 39/90/26 40/91/26
f 40/92/27 39/93/27 37/94/27 38/95/27
f 38/96/28 34/97/28 36/98/28 40/99/28
f 34/100/29 33/101/29 35/102/29 36/103/29
f 38/89/30 37/104/30 33/105/30 34/90/30
o Cube.005
v -0.443515 0.443515 0.498016
v -0.443515 0.443515 0.438016
v 0.446205 0.443515 0.498017
v 0.446205 0.443515 0.438017
v -0.443515 -0.497310 0.498016
v -0.443515 -0.497310 0.438016
v 0.446205 -0.497310 0.498017
v 0.446205 -0.497310 0.438017
vn -0.0000 -0.0000 1.0000
vn 1.0000 -0.0000 -0.0000
vn -0.0000 -1.0000 -0.0000
vn -0.0000 -0.0000 -1.0000
vn -0.0000 1.0000 -0.0000
vn -1.0000 -0.0000 -0.0000
vt 0.526830 3.943158
vt 0.526830 3.001587
vt 1.417255 3.001586
vt 1.417256 3.943158
vt -1.101784 3.001586
vt -1.101784 2.000793
vt -0.160212 2.000793
vt -0.160212 3.001586
vt 1.671785 3.001586
vt 1.671785 2.000793
vt 2.562210 2.000793
vt 2.562210 3.001586
vt 1.417255 3.943158
vt 1.417255 3.001586
vt 2.307681 3.001586
vt 2.307681 3.943158
vt 0.781359 3.001586
vt 0.781359 2.000793
vt -0.160212 2.000793
vt 0.781359 2.000793
vt 0.781359 3.001586
s 0
usemtl Material
f 41/106/31 45/107/31 47/108/31 43/109/31
f 44/110/32 43/111/32 47/112/32 48/113/32
f 48/114/33 47/115/33 45/116/33 46/117/33
f 46/118/34 42/119/34 44/120/34 48/121/34
f 42/122/35 41/123/35 43/115/35 44/114/35
f 46/113/36 45/124/36 41/125/36 42/126/36
