# Blender 4.3.2
# www.blender.org
mtllib myfurniture_mailbox_open.mtl
o Cube
v 0.294621 0.126225 -0.175027
v 0.294621 0.126225 0.175027
v -0.305380 0.101252 -0.200000
v -0.305380 0.101252 0.200000
v 0.294621 0.306804 -0.175027
v 0.294621 0.476279 -0.005552
v 0.294621 0.334132 -0.172876
v 0.294621 0.359829 -0.166707
v 0.294621 0.384245 -0.156594
v 0.294621 0.406778 -0.142785
v 0.294621 0.426874 -0.125622
v 0.294621 0.444037 -0.105526
v 0.294621 0.457846 -0.082993
v 0.294621 0.467959 -0.058577
v 0.294621 0.474128 -0.032880
v 0.294621 0.476279 0.005552
v 0.294621 0.306804 0.175027
v 0.294621 0.474128 0.032880
v 0.294621 0.467959 0.058577
v 0.294621 0.457846 0.082993
v 0.294621 0.444037 0.105526
v 0.294621 0.426874 0.125622
v 0.294621 0.406778 0.142785
v 0.294621 0.384245 0.156594
v 0.294621 0.359829 0.166707
v 0.294621 0.334132 0.172876
v -0.305380 0.501252 -0.006533
v -0.305380 0.307785 -0.200000
v -0.305380 0.498870 -0.036798
v -0.305380 0.491783 -0.066318
v -0.305380 0.480165 -0.094365
v -0.305380 0.464303 -0.120250
v -0.305380 0.444587 -0.143335
v -0.305380 0.421502 -0.163051
v -0.305380 0.395617 -0.178913
v -0.305380 0.367570 -0.190531
v -0.305380 0.338050 -0.197618
v -0.305380 0.307785 0.200000
v -0.305380 0.501252 0.006533
v -0.305380 0.338050 0.197618
v -0.305380 0.367570 0.190531
v -0.305380 0.395617 0.178913
v -0.305380 0.421502 0.163051
v -0.305380 0.444587 0.143335
v -0.305380 0.464303 0.120250
v -0.305380 0.480165 0.094365
v -0.305380 0.491783 0.066318
v -0.305380 0.498870 0.036798
v 0.294621 0.101252 0.200000
v 0.294621 0.101252 -0.200000
v 0.294621 0.498870 0.036798
v 0.294621 0.501252 0.006533
v 0.294621 0.491783 0.066318
v 0.294621 0.480165 0.094365
v 0.294621 0.464303 0.120250
v 0.294621 0.444587 0.143335
v 0.294621 0.421502 0.163051
v 0.294621 0.395617 0.178913
v 0.294621 0.367570 0.190531
v 0.294621 0.338050 0.197618
v 0.294621 0.307785 0.200000
v 0.294621 0.501252 -0.006533
v 0.294621 0.498870 -0.036798
v 0.294621 0.491783 -0.066318
v 0.294621 0.480165 -0.094365
v 0.294621 0.464303 -0.120250
v 0.294621 0.444587 -0.143335
v 0.294621 0.421502 -0.163051
v 0.294621 0.395617 -0.178913
v 0.294621 0.367570 -0.190531
v 0.294621 0.338050 -0.197618
v 0.294621 0.307785 -0.200000
v -0.263876 0.126225 0.175027
v -0.263876 0.126225 -0.175027
v -0.263876 0.474128 0.032880
v -0.263876 0.476279 0.005552
v -0.263876 0.467959 0.058577
v -0.263876 0.457846 0.082993
v -0.263876 0.444037 0.105526
v -0.263876 0.426874 0.125622
v -0.263876 0.406778 0.142785
v -0.263876 0.384245 0.156594
v -0.263876 0.359829 0.166707
v -0.263876 0.334132 0.172876
v -0.263876 0.306804 0.175027
v -0.263876 0.476279 -0.005552
v -0.263876 0.474128 -0.032880
v -0.263876 0.467959 -0.058577
v -0.263876 0.457846 -0.082993
v -0.263876 0.444037 -0.105526
v -0.263876 0.426874 -0.125622
v -0.263876 0.406778 -0.142785
v -0.263876 0.384245 -0.156594
v -0.263876 0.359829 -0.166707
v -0.263876 0.334132 -0.172876
v -0.263876 0.306804 -0.175027
vn -0.0000 -0.0000 1.0000
vn -1.0000 -0.0000 -0.0000
vn -0.0000 -1.0000 -0.0000
vn -0.0000 1.0000 -0.0000
vn -0.0000 -0.9724 -0.2334
vn -0.0000 0.9969 0.0785
vn -0.0000 0.9724 0.2334
vn -0.0000 0.9239 0.3827
vn -0.0000 0.8526 0.5225
vn -0.0000 0.7604 0.6494
vn -0.0000 0.6494 0.7604
vn -0.0000 0.5225 0.8526
vn -0.0000 0.3827 0.9239
vn -0.0000 0.2334 0.9724
vn -0.0000 0.0785 0.9969
vn -0.0000 0.9969 -0.0785
vn -0.0000 0.9724 -0.2334
vn -0.0000 0.9239 -0.3827
vn -0.0000 0.8526 -0.5225
vn -0.0000 0.7604 -0.6494
vn -0.0000 0.6494 -0.7604
vn -0.0000 0.5225 -0.8526
vn -0.0000 0.3827 -0.9239
vn -0.0000 0.2334 -0.9724
vn -0.0000 0.0785 -0.9969
vn -0.0000 -0.0000 -1.0000
vn 1.0000 -0.0000 -0.0000
vn -0.0000 -0.5225 0.8526
vn -0.0000 -0.0785 -0.9969
vn -0.0000 -0.9239 -0.3827
vn -0.0000 -0.3827 0.9239
vn -0.0000 -0.9969 0.0785
vn -0.0000 -0.8526 -0.5225
vn -0.0000 -0.2334 0.9724
vn -0.0000 -0.9724 0.2334
vn -0.0000 -0.7604 -0.6494
vn -0.0000 -0.0785 0.9969
vn -0.0000 -0.9239 0.3827
vn -0.0000 -0.6494 -0.7604
vn -0.0000 -0.8526 0.5225
vn -0.0000 -0.5225 -0.8526
vn -0.0000 -0.7604 0.6494
vn -0.0000 -0.3827 -0.9239
vn -0.0000 -0.9969 -0.0785
vn -0.0000 -0.6494 0.7604
vn -0.0000 -0.2334 -0.9724
vt 0.240666 0.242997
vt 0.128662 0.242997
vt 0.128662 0.026075
vt 0.240666 0.026075
vt 0.235990 0.241168
vt 0.123986 0.241168
vt 0.107573 0.239877
vt 0.091565 0.236033
vt 0.076355 0.229733
vt 0.062317 0.221131
vt 0.049798 0.210439
vt 0.039106 0.197920
vt 0.030504 0.183882
vt 0.024204 0.168672
vt 0.020360 0.152663
vt 0.019069 0.136251
vt 0.019069 0.129165
vt 0.020360 0.112752
vt 0.024204 0.096743
vt 0.030504 0.081533
vt 0.039106 0.067495
vt 0.049798 0.054977
vt 0.062317 0.044284
vt 0.076355 0.035682
vt 0.091565 0.029382
vt 0.107574 0.025539
vt 0.123986 0.024247
vt 0.235990 0.024247
vt 0.241725 0.027904
vt 0.241725 0.244825
vt 0.024803 0.244825
vt 0.024803 0.027904
vt 0.171421 0.024372
vt 0.171421 0.241293
vt 0.164334 0.241293
vt 0.164334 0.024372
vt 0.144476 0.239835
vt 0.130540 0.239835
vt 0.130540 0.037919
vt 0.144476 0.037919
vt 0.147922 0.241293
vt 0.147922 0.024372
vt 0.131913 0.241293
vt 0.131913 0.024372
vt 0.116703 0.241293
vt 0.116703 0.024372
vt 0.102665 0.241293
vt 0.102665 0.024372
vt 0.090146 0.241293
vt 0.090146 0.024372
vt 0.054474 0.242997
vt 0.054474 0.026075
vt 0.066993 0.026075
vt 0.066993 0.242997
vt 0.081031 0.026075
vt 0.081031 0.242997
vt 0.096241 0.026075
vt 0.096241 0.242997
vt 0.112250 0.026075
vt 0.112250 0.242997
vt 0.187833 0.024372
vt 0.187833 0.241293
vt 0.203842 0.024372
vt 0.203842 0.241293
vt 0.219052 0.024372
vt 0.219052 0.241293
vt 0.233090 0.024372
vt 0.233090 0.241293
vt 0.245609 0.024372
vt 0.245609 0.241293
vt 0.050568 0.243122
vt 0.050568 0.026200
vt 0.063087 0.026200
vt 0.063087 0.243122
vt 0.077124 0.026200
vt 0.077124 0.243122
vt 0.092335 0.026200
vt 0.092335 0.243122
vt 0.108343 0.026200
vt 0.108343 0.243122
vt 0.124756 0.026200
vt 0.124756 0.243122
vt 0.236760 0.243122
vt 0.236760 0.026200
vt 0.228431 0.229579
vt 0.228431 0.039743
vt 0.241974 0.026200
vt 0.241974 0.243122
vt 0.039762 0.116830
vt 0.038596 0.131650
vt 0.025053 0.131118
vt 0.026344 0.114705
vt 0.043108 0.102894
vt 0.030188 0.098696
vt 0.048592 0.089653
vt 0.036488 0.083486
vt 0.056080 0.077434
vt 0.045090 0.069449
vt 0.065388 0.066536
vt 0.055782 0.056930
vt 0.076286 0.057228
vt 0.068301 0.046237
vt 0.088506 0.049739
vt 0.082339 0.037635
vt 0.101747 0.044255
vt 0.097549 0.031335
vt 0.115683 0.040909
vt 0.113558 0.027492
vt 0.130502 0.039743
vt 0.129970 0.026200
vt 0.038596 0.137672
vt 0.039762 0.152491
vt 0.026344 0.154617
vt 0.025053 0.138204
vt 0.043108 0.166427
vt 0.030188 0.170625
vt 0.048592 0.179668
vt 0.036488 0.185835
vt 0.056080 0.191888
vt 0.045090 0.199873
vt 0.065388 0.202786
vt 0.055782 0.212392
vt 0.076286 0.212094
vt 0.068301 0.223084
vt 0.088506 0.219582
vt 0.082339 0.231686
vt 0.101747 0.225067
vt 0.097549 0.237987
vt 0.115683 0.228412
vt 0.113558 0.241830
vt 0.130502 0.229579
vt 0.129970 0.243122
vt 0.226865 0.235692
vt 0.128936 0.235692
vt 0.114117 0.234525
vt 0.100181 0.231180
vt 0.086940 0.225695
vt 0.074720 0.218207
vt 0.063822 0.208899
vt 0.054514 0.198001
vt 0.047026 0.185781
vt 0.041541 0.172540
vt 0.038196 0.158605
vt 0.037029 0.143785
vt 0.037029 0.137763
vt 0.038196 0.122943
vt 0.041541 0.109007
vt 0.047026 0.095766
vt 0.054514 0.083547
vt 0.063822 0.072649
vt 0.074720 0.063341
vt 0.086940 0.055853
vt 0.100181 0.050368
vt 0.114117 0.047022
vt 0.128936 0.045856
vt 0.226865 0.045856
vt 0.098805 0.241913
vt 0.086585 0.241913
vt 0.086585 0.039997
vt 0.098805 0.039997
vt 0.128851 0.033888
vt 0.143671 0.033888
vt 0.143671 0.235804
vt 0.128851 0.235804
vt 0.117300 0.239835
vt 0.117300 0.037919
vt 0.112046 0.241913
vt 0.112046 0.039997
vt 0.180138 0.239835
vt 0.165318 0.239835
vt 0.165318 0.037919
vt 0.180138 0.037919
vt 0.105080 0.239835
vt 0.105080 0.037919
vt 0.125981 0.241913
vt 0.125981 0.039997
vt 0.194074 0.239835
vt 0.194074 0.037919
vt 0.094182 0.239835
vt 0.094182 0.037919
vt 0.140801 0.241913
vt 0.140801 0.039997
vt 0.207314 0.239835
vt 0.207314 0.037919
vt 0.078557 0.033888
vt 0.089455 0.033888
vt 0.089455 0.235804
vt 0.078557 0.235804
vt 0.238730 0.241913
vt 0.238730 0.039997
vt 0.219534 0.239835
vt 0.219534 0.037919
vt 0.101675 0.033888
vt 0.101675 0.235804
vt 0.159296 0.239835
vt 0.159296 0.037919
vt 0.040199 0.039988
vt 0.230035 0.039988
vt 0.230035 0.241904
vt 0.040199 0.241904
vt 0.230432 0.239835
vt 0.230432 0.037919
vt 0.114916 0.033888
vt 0.114916 0.235804
vt 0.241600 0.033888
vt 0.241600 0.235804
vt 0.075687 0.241913
vt 0.075687 0.039997
s 0
usemtl Material
f 49/1/1 61/2/1 38/3/1 4/4/1
f 4/5/2 38/6/2 40/7/2 41/8/2 42/9/2 43/10/2 44/11/2 45/12/2 46/13/2 47/14/2 48/15/2 39/16/2 27/17/2 29/18/2 30/19/2 31/20/2 32/21/2 33/22/2 34/23/2 35/24/2 36/25/2 37/26/2 28/27/2 3/28/2
f 3/29/3 50/30/3 49/31/3 4/32/3
f 62/33/4 27/34/4 39/35/4 52/36/4
f 18/37/5 19/38/5 77/39/5 75/40/5
f 52/36/6 39/35/6 48/41/6 51/42/6
f 51/42/7 48/41/7 47/43/7 53/44/7
f 53/44/8 47/43/8 46/45/8 54/46/8
f 54/46/9 46/45/9 45/47/9 55/48/9
f 55/48/10 45/47/10 44/49/10 56/50/10
f 56/51/11 44/52/11 43/53/11 57/54/11
f 57/54/12 43/53/12 42/55/12 58/56/12
f 58/56/13 42/55/13 41/57/13 59/58/13
f 59/58/14 41/57/14 40/59/14 60/60/14
f 60/60/15 40/59/15 38/3/15 61/2/15
f 27/34/16 62/33/16 63/61/16 29/62/16
f 29/62/17 63/61/17 64/63/17 30/64/17
f 30/64/18 64/63/18 65/65/18 31/66/18
f 31/66/19 65/65/19 66/67/19 32/68/19
f 32/68/20 66/67/20 67/69/20 33/70/20
f 33/71/21 67/72/21 68/73/21 34/74/21
f 34/74/22 68/73/22 69/75/22 35/76/22
f 35/76/23 69/75/23 70/77/23 36/78/23
f 36/78/24 70/77/24 71/79/24 37/80/24
f 37/80/25 71/79/25 72/81/25 28/82/25
f 3/83/26 28/82/26 72/81/26 50/84/26
f 1/85/27 2/86/27 49/87/27 50/88/27
f 18/89/27 16/90/27 52/91/27 51/92/27
f 19/93/27 18/89/27 51/92/27 53/94/27
f 20/95/27 19/93/27 53/94/27 54/96/27
f 21/97/27 20/95/27 54/96/27 55/98/27
f 22/99/27 21/97/27 55/98/27 56/100/27
f 23/101/27 22/99/27 56/100/27 57/102/27
f 24/103/27 23/101/27 57/102/27 58/104/27
f 25/105/27 24/103/27 58/104/27 59/106/27
f 26/107/27 25/105/27 59/106/27 60/108/27
f 17/109/27 26/107/27 60/108/27 61/110/27
f 6/111/27 15/112/27 63/113/27 62/114/27
f 15/112/27 14/115/27 64/116/27 63/113/27
f 14/115/27 13/117/27 65/118/27 64/116/27
f 13/117/27 12/119/27 66/120/27 65/118/27
f 12/119/27 11/121/27 67/122/27 66/120/27
f 11/121/27 10/123/27 68/124/27 67/122/27
f 10/123/27 9/125/27 69/126/27 68/124/27
f 9/125/27 8/127/27 70/128/27 69/126/27
f 8/127/27 7/129/27 71/130/27 70/128/27
f 7/129/27 5/131/27 72/132/27 71/130/27
f 5/131/27 1/85/27 50/88/27 72/132/27
f 16/90/27 6/111/27 62/114/27 52/91/27
f 2/86/27 17/109/27 61/110/27 49/87/27
f 74/133/27 96/134/27 95/135/27 94/136/27 93/137/27 92/138/27 91/139/27 90/140/27 89/141/27 88/142/27 87/143/27 86/144/27 76/145/27 75/146/27 77/147/27 78/148/27 79/149/27 80/150/27 81/151/27 82/152/27 83/153/27 84/154/27 85/155/27 73/156/27
f 9/157/28 10/158/28 92/159/28 93/160/28
f 26/161/29 17/162/29 85/163/29 84/164/29
f 19/38/30 20/165/30 78/166/30 77/39/30
f 8/167/31 9/157/31 93/160/31 94/168/31
f 15/169/32 6/170/32 86/171/32 87/172/32
f 20/165/33 21/173/33 79/174/33 78/166/33
f 7/175/34 8/167/34 94/168/34 95/176/34
f 14/177/35 15/169/35 87/172/35 88/178/35
f 21/173/36 22/179/36 80/180/36 79/174/36
f 5/181/37 7/175/37 95/176/37 96/182/37
f 13/183/38 14/177/38 88/178/38 89/184/38
f 22/185/39 23/186/39 81/187/39 80/188/39
f 1/189/1 5/181/1 96/182/1 74/190/1
f 12/191/40 13/183/40 89/184/40 90/192/40
f 23/186/41 24/193/41 82/194/41 81/187/41
f 6/170/3 16/195/3 76/196/3 86/171/3
f 2/197/4 1/198/4 74/199/4 73/200/4
f 11/201/42 12/191/42 90/192/42 91/202/42
f 24/193/43 25/203/43 83/204/43 82/194/43
f 17/162/26 2/205/26 73/206/26 85/163/26
f 16/195/44 18/37/44 75/40/44 76/196/44
f 10/158/45 11/207/45 91/208/45 92/159/45
f 25/203/46 26/161/46 84/164/46 83/204/46
o Cube.001
v 0.282960 0.101873 -0.201339
v 0.282960 0.101874 0.198661
v 0.294577 0.101873 -0.201339
v 0.294577 0.101874 0.198661
v 0.282960 -0.104519 -0.201339
v 0.282960 -0.298126 -0.007731
v 0.282960 -0.134806 -0.198955
v 0.282960 -0.164347 -0.191863
v 0.282960 -0.192415 -0.180237
v 0.282960 -0.218319 -0.164363
v 0.282960 -0.241420 -0.144632
v 0.282960 -0.261151 -0.121531
v 0.282960 -0.277024 -0.095627
v 0.282960 -0.288651 -0.067559
v 0.282960 -0.295743 -0.038018
v 0.282960 -0.298126 0.005054
v 0.282960 -0.104519 0.198661
v 0.282960 -0.295743 0.035341
v 0.282960 -0.288650 0.064882
v 0.282960 -0.277024 0.092950
v 0.282960 -0.261150 0.118853
v 0.282960 -0.241420 0.141955
v 0.282960 -0.218318 0.161686
v 0.282960 -0.192415 0.177559
v 0.282960 -0.164347 0.189185
v 0.282960 -0.134805 0.196278
v 0.294577 -0.298126 -0.007731
v 0.294577 -0.104519 -0.201339
v 0.294577 -0.295743 -0.038018
v 0.294577 -0.288651 -0.067559
v 0.294577 -0.277024 -0.095627
v 0.294577 -0.261151 -0.121531
v 0.294577 -0.241420 -0.144632
v 0.294577 -0.218319 -0.164363
v 0.294577 -0.192415 -0.180237
v 0.294577 -0.164347 -0.191863
v 0.294577 -0.134806 -0.198955
v 0.294577 -0.104519 0.198661
v 0.294577 -0.298126 0.005054
v 0.294577 -0.134805 0.196278
v 0.294577 -0.164347 0.189185
v 0.294577 -0.192415 0.177559
v 0.294577 -0.218318 0.161686
v 0.294577 -0.241420 0.141955
v 0.294577 -0.261150 0.118853
v 0.294577 -0.277024 0.092950
v 0.294577 -0.288650 0.064882
v 0.294577 -0.295743 0.035341
vn -0.0000 -1.0000 -0.0000
vn 1.0000 -0.0000 -0.0000
vn -1.0000 -0.0000 -0.0000
vn -0.0000 1.0000 -0.0000
vn -0.0000 -0.0000 1.0000
vn -0.0000 -0.9969 0.0785
vn -0.0000 -0.9724 0.2334
vn -0.0000 -0.9239 0.3827
vn -0.0000 -0.8526 0.5225
vn -0.0000 -0.7604 0.6494
vn -0.0000 -0.6494 0.7604
vn -0.0000 -0.5225 0.8526
vn -0.0000 -0.3827 0.9239
vn -0.0000 -0.2334 0.9724
vn -0.0000 -0.0785 0.9969
vn -0.0000 -0.9969 -0.0785
vn -0.0000 -0.9724 -0.2334
vn -0.0000 -0.9239 -0.3827
vn -0.0000 -0.8526 -0.5225
vn -0.0000 -0.7604 -0.6494
vn -0.0000 -0.6494 -0.7604
vn -0.0000 -0.5225 -0.8526
vn -0.0000 -0.3827 -0.9239
vn -0.0000 -0.2334 -0.9724
vn -0.0000 -0.0785 -0.9969
vn -0.0000 -0.0000 -1.0000
vt 0.182182 0.152040
vt 0.177982 0.152040
vt 0.177982 0.145107
vt 0.182182 0.145107
vt 0.239772 0.243246
vt 0.127844 0.243246
vt 0.111419 0.241954
vt 0.095399 0.238108
vt 0.080178 0.231803
vt 0.066130 0.223194
vt 0.053602 0.212494
vt 0.042902 0.199966
vt 0.034294 0.185918
vt 0.027989 0.170697
vt 0.024143 0.154677
vt 0.022850 0.138252
vt 0.022850 0.131319
vt 0.024143 0.114894
vt 0.027989 0.098874
vt 0.034294 0.083653
vt 0.042902 0.069605
vt 0.053602 0.057077
vt 0.066130 0.046377
vt 0.080178 0.037768
vt 0.095399 0.031464
vt 0.111420 0.027617
vt 0.127844 0.026325
vt 0.239772 0.026325
vt 0.234287 0.242872
vt 0.122359 0.242872
vt 0.105934 0.241579
vt 0.089914 0.237733
vt 0.074693 0.231428
vt 0.060645 0.222820
vt 0.048117 0.212120
vt 0.037417 0.199592
vt 0.028809 0.185544
vt 0.022504 0.170323
vt 0.018658 0.154302
vt 0.017365 0.137878
vt 0.017365 0.130945
vt 0.018658 0.114520
vt 0.022504 0.098500
vt 0.028809 0.083278
vt 0.037417 0.069231
vt 0.048117 0.056702
vt 0.060645 0.046003
vt 0.074693 0.037394
vt 0.089914 0.031089
vt 0.105934 0.027243
vt 0.122359 0.025950
vt 0.234287 0.025950
vt 0.063470 0.238624
vt 0.059270 0.238624
vt 0.059270 0.021703
vt 0.063470 0.021703
vt 0.063470 0.223152
vt 0.063470 0.114734
vt 0.067671 0.114734
vt 0.067671 0.223152
vt 0.182182 0.168465
vt 0.177982 0.168465
vt 0.182182 0.184485
vt 0.177982 0.184485
vt 0.182182 0.199707
vt 0.177982 0.199707
vt 0.182182 0.213754
vt 0.177982 0.213754
vt 0.063470 0.021703
vt 0.067671 0.021703
vt 0.067671 0.035179
vt 0.063470 0.035179
vt 0.067671 0.049973
vt 0.063470 0.049973
vt 0.067671 0.065719
vt 0.063470 0.065719
vt 0.067671 0.082029
vt 0.063470 0.082029
vt 0.067671 0.098503
vt 0.063470 0.098503
vt 0.177982 0.128682
vt 0.182182 0.128682
vt 0.177982 0.112662
vt 0.182182 0.112662
vt 0.177982 0.097441
vt 0.182182 0.097441
vt 0.177982 0.083393
vt 0.182182 0.083393
vt 0.071871 0.021703
vt 0.071871 0.035179
vt 0.071871 0.049973
vt 0.071871 0.065719
vt 0.071871 0.082029
vt 0.071871 0.098503
vt 0.071871 0.114734
vt 0.071871 0.223152
s 0
f 135/209/47 112/210/47 102/211/47 123/212/47
f 100/213/48 134/214/48 136/215/48 137/216/48 138/217/48 139/218/48 140/219/48 141/220/48 142/221/48 143/222/48 144/223/48 135/224/48 123/225/48 125/226/48 126/227/48 127/228/48 128/229/48 129/230/48 130/231/48 131/232/48 132/233/48 133/234/48 124/235/48 99/236/48
f 97/237/49 101/238/49 103/239/49 104/240/49 105/241/49 106/242/49 107/243/49 108/244/49 109/245/49 110/246/49 111/247/49 102/248/49 112/249/49 114/250/49 115/251/49 116/252/49 117/253/49 118/254/49 119/255/49 120/256/49 121/257/49 122/258/49 113/259/49 98/260/49
f 98/261/50 100/262/50 99/263/50 97/264/50
f 98/265/51 113/266/51 134/267/51 100/268/51
f 112/210/52 135/209/52 144/269/52 114/270/52
f 114/270/53 144/269/53 143/271/53 115/272/53
f 115/272/54 143/271/54 142/273/54 116/274/54
f 116/274/55 142/273/55 141/275/55 117/276/55
f 117/277/56 141/278/56 140/279/56 118/280/56
f 118/280/57 140/279/57 139/281/57 119/282/57
f 119/282/58 139/281/58 138/283/58 120/284/58
f 120/284/59 138/283/59 137/285/59 121/286/59
f 121/286/60 137/285/60 136/287/60 122/288/60
f 122/288/61 136/287/61 134/267/61 113/266/61
f 123/212/62 102/211/62 111/289/62 125/290/62
f 125/290/63 111/289/63 110/291/63 126/292/63
f 126/292/64 110/291/64 109/293/64 127/294/64
f 127/294/65 109/293/65 108/295/65 128/296/65
f 128/278/66 108/297/66 107/298/66 129/279/66
f 129/279/67 107/298/67 106/299/67 130/281/67
f 130/281/68 106/299/68 105/300/68 131/283/68
f 131/283/69 105/300/69 104/301/69 132/285/69
f 132/285/70 104/301/70 103/302/70 133/287/70
f 133/287/71 103/302/71 101/303/71 124/267/71
f 99/268/72 124/267/72 101/303/72 97/304/72
o Cube.002
v -0.062690 -0.499041 0.060000
v -0.062690 0.100959 0.060000
v -0.062690 -0.499041 -0.060000
v -0.062690 0.100959 -0.060000
v 0.057310 -0.499041 0.060000
v 0.057310 0.100959 0.060000
v 0.057310 -0.499041 -0.060000
v 0.057310 0.100959 -0.060000
vn -1.0000 -0.0000 -0.0000
vn -0.0000 -0.0000 -1.0000
vn 1.0000 -0.0000 -0.0000
vn -0.0000 -0.0000 1.0000
vn -0.0000 -1.0000 -0.0000
vn -0.0000 1.0000 -0.0000
vt 0.239772 0.980841
vt 0.022850 0.980841
vt 0.022850 0.763920
vt 0.239772 0.763920
vt 0.237943 0.982670
vt 0.021022 0.982669
vt 0.021022 0.765748
vt 0.237943 0.765748
vt 0.235990 0.980841
vt 0.019069 0.980841
vt 0.019069 0.763920
vt 0.235990 0.763920
vt 0.241725 0.980966
vt 0.024803 0.980966
vt 0.024803 0.764044
vt 0.241725 0.764044
vt 0.238068 0.761842
vt 0.238068 0.978763
vt 0.021146 0.978763
vt 0.021146 0.761842
vt 0.240021 0.767826
vt 0.240021 0.984747
vt 0.023100 0.984747
vt 0.023100 0.767826
s 0
f 145/305/73 146/306/73 148/307/73 147/308/73
f 147/309/74 148/310/74 152/311/74 151/312/74
f 151/313/75 152/314/75 150/315/75 149/316/75
f 149/317/76 150/318/76 146/319/76 145/320/76
f 147/321/77 151/322/77 149/323/77 145/324/77
f 152/325/78 148/326/78 146/327/78 150/328/78
o Cube.003
v 0.156926 0.271154 -0.199192
v 0.156926 0.616166 -0.199192
v 0.156926 0.271154 -0.219133
v 0.156926 0.616166 -0.219133
v 0.218827 0.271154 -0.199192
v 0.218827 0.616166 -0.199192
v 0.218827 0.271154 -0.219133
v 0.218827 0.616166 -0.219133
vn -1.0000 -0.0000 -0.0000
vn -0.0000 -0.0000 -1.0000
vn 1.0000 -0.0000 -0.0000
vn -0.0000 -0.0000 1.0000
vn -0.0000 -1.0000 -0.0000
vn -0.0000 1.0000 -0.0000
vt 0.896903 0.971536
vt 0.896903 0.846802
vt 0.932951 0.846802
vt 0.932951 0.971536
vt 0.785005 0.971536
vt 0.785005 0.846802
vt 0.932951 0.971536
vt 0.932951 0.846802
vt 0.968998 0.846802
vt 0.968998 0.971536
vt 0.768791 0.971215
vt 0.768791 0.846481
vt 0.880689 0.846481
vt 0.880689 0.971215
vt 0.916737 0.846481
vt 0.916737 0.958379
vt 0.880689 0.958379
vt 0.880689 0.846481
vt 0.952784 0.846481
vt 0.952784 0.958379
vt 0.916737 0.846481
s 0
f 153/329/79 154/330/79 156/331/79 155/332/79
f 155/333/80 156/334/80 160/330/80 159/329/80
f 159/335/81 160/336/81 158/337/81 157/338/81
f 157/339/82 158/340/82 154/341/82 153/342/82
f 155/343/83 159/344/83 157/345/83 153/346/83
f 160/347/84 156/348/84 154/344/84 158/349/84
o Cube.004
v 0.066550 0.519687 -0.199192
v 0.066550 0.616166 -0.199192
v 0.068881 0.519687 -0.219133
v 0.068881 0.616166 -0.219133
v 0.154273 0.519687 -0.199192
v 0.154273 0.616166 -0.199192
v 0.156604 0.519687 -0.219133
v 0.156604 0.616166 -0.219133
vn -0.9932 -0.0000 -0.1161
vn -0.0000 -0.0000 -1.0000
vn 0.9932 -0.0000 0.1161
vn -0.0000 -0.0000 1.0000
vn -0.0000 -1.0000 -0.0000
vn -0.0000 1.0000 -0.0000
vt 0.786936 0.888729
vt 0.752055 0.888729
vt 0.752055 0.852682
vt 0.786936 0.852682
vt 0.853867 0.955058
vt 0.818986 0.955058
vt 0.818986 0.796483
vt 0.853867 0.796483
vt 0.821817 0.888729
vt 0.786936 0.888729
vt 0.786936 0.852681
vt 0.821817 0.852681
vt 0.949979 0.967915
vt 0.915099 0.967915
vt 0.915099 0.809340
vt 0.949979 0.809340
vt 0.847927 0.799901
vt 0.847927 0.958476
vt 0.811879 0.958476
vt 0.811879 0.799901
vt 0.818866 0.768897
vt 0.818866 0.927472
vt 0.782819 0.927472
vt 0.782819 0.768897
s 0
f 161/350/85 162/351/85 164/352/85 163/353/85
f 163/354/86 164/355/86 168/356/86 167/357/86
f 167/358/87 168/359/87 166/360/87 165/361/87
f 165/362/88 166/363/88 162/364/88 161/365/88
f 163/366/89 167/367/89 165/368/89 161/369/89
f 168/370/90 164/371/90 162/372/90 166/373/90
