# Blender 4.3.2
# www.blender.org
mtllib myfurniture_shelf.mtl
o Cube
v 0.500000 0.493662 0.001761
v 0.500000 0.443662 0.001761
v 0.500000 0.493662 0.501761
v 0.500000 0.443662 0.501761
v -0.500000 0.493662 0.001761
v -0.500000 0.443662 0.001761
v -0.500000 0.493662 0.501761
v -0.500000 0.443662 0.501761
vn -0.0000 1.0000 -0.0000
vn -0.0000 -0.0000 1.0000
vn -1.0000 -0.0000 -0.0000
vn -0.0000 -1.0000 -0.0000
vn 1.0000 -0.0000 -0.0000
vn -0.0000 -0.0000 -1.0000
vt 0.502344 0.004688
vt 0.502344 1.001563
vt 0.005469 1.001563
vt 0.005469 0.004688
vt 0.884985 1.034044
vt 0.530185 1.034044
vt 0.530185 0.679244
vt 0.884985 0.679244
vt 1.239785 1.034045
vt 1.239785 0.679244
vt 0.503125 0.000000
vt 0.495313 0.996875
vt -0.005469 0.996875
vt 0.002344 0.000000
vt 0.875283 0.324391
vt 0.520483 0.324391
vt 0.520483 -0.030409
vt 0.875284 -0.030409
vt 0.875284 0.679191
vt 0.520484 0.679191
vt 0.520484 0.324391
vt 0.875284 0.324391
s 0
usemtl Material
f 1/1/1 5/2/1 7/3/1 3/4/1
f 4/5/2 3/6/2 7/7/2 8/8/2
f 8/9/3 7/5/3 5/8/3 6/10/3
f 6/11/4 2/12/4 4/13/4 8/14/4
f 2/15/5 1/16/5 3/17/5 4/18/5
f 6/19/6 5/20/6 1/21/6 2/22/6
o Cube.001
v -0.302465 0.447535 0.001761
v -0.302465 -0.052465 0.501408
v -0.302465 0.447535 0.501761
v -0.302465 -0.052465 0.501761
v -0.402465 0.447535 0.001761
v -0.402465 -0.052465 0.501408
v -0.402465 0.447535 0.501761
v -0.402465 -0.052465 0.501761
vn -0.0000 1.0000 -0.0000
vn -0.0000 -0.0000 1.0000
vn -1.0000 -0.0000 -0.0000
vn -0.0000 -1.0000 -0.0000
vn 1.0000 -0.0000 -0.0000
vn -0.0000 -0.7069 -0.7074
vt 0.884985 1.034044
vt 0.884985 1.388844
vt 0.530185 1.388844
vt 0.530185 1.034044
vt 1.239785 1.388844
vt 0.884985 1.388844
vt 1.239785 1.034045
vt 1.230084 0.324391
vt 0.875283 0.324391
vt 0.875284 -0.030409
vt 1.230084 0.324141
vt 0.857266 0.123307
vt 1.212066 0.123307
vt 1.212066 0.123483
vt 0.857266 0.123483
vt 1.230084 0.324641
vt 0.875283 0.679191
vt 1.230084 0.324391
vt 0.857266 -0.378280
vt 1.212066 -0.378280
s 0
usemtl Material
f 9/23/7 13/24/7 15/25/7 11/26/7
f 12/27/8 11/28/8 15/23/8 16/29/8
f 16/30/9 15/31/9 13/32/9 14/33/9
f 14/34/10 10/35/10 12/36/10 16/37/10
f 10/38/11 9/39/11 11/31/11 12/40/11
f 14/34/12 13/41/12 9/42/12 10/35/12
o Cube.002
v 0.406338 0.447535 0.001761
v 0.406338 -0.052465 0.501408
v 0.406338 0.447535 0.501761
v 0.406338 -0.052465 0.501761
v 0.306338 0.447535 0.001761
v 0.306338 -0.052465 0.501408
v 0.306338 0.447535 0.501761
v 0.306338 -0.052465 0.501761
vn -0.0000 1.0000 -0.0000
vn -0.0000 -0.0000 1.0000
vn -1.0000 -0.0000 -0.0000
vn -0.0000 -1.0000 -0.0000
vn 1.0000 -0.0000 -0.0000
vn -0.0000 -0.7069 -0.7074
vt 0.871126 -0.035900
vt 0.871126 0.318900
vt 0.516326 0.318900
vt 0.516326 -0.035900
vt 0.520483 -0.030409
vt 0.165683 -0.030409
vt 0.165684 -0.385209
vt 0.520484 -0.385209
vt 0.866968 -0.038671
vt 0.512168 -0.038671
vt 0.512168 -0.393471
vt 0.866968 -0.038921
vt 0.516326 -0.036076
vt 0.871126 -0.036076
vt 0.871126 -0.035900
vt 1.230084 -0.384960
vt 0.875284 -0.030409
vt 0.875284 -0.385209
vt 1.230084 -0.385209
vt 0.869740 0.123307
vt 0.869740 -0.378280
vt 1.224540 -0.378280
vt 1.224540 0.123307
s 0
usemtl Material
f 17/43/13 21/44/13 23/45/13 19/46/13
f 20/47/14 19/48/14 23/49/14 24/50/14
f 24/51/15 23/52/15 21/53/15 22/54/15
f 22/55/16 18/56/16 20/57/16 24/46/16
f 18/58/17 17/59/17 19/60/17 20/61/17
f 22/62/18 21/63/18 17/64/18 18/65/18
