# Blender 4.3.2
# www.blender.org
mtllib myfurniture_sofa_right.mtl
o Cube
v 0.492243 -0.000986 -0.500000
v 0.492243 -0.500986 -0.500000
v 0.492243 -0.000986 0.299545
v 0.492243 -0.500986 0.299545
v -0.300141 -0.000986 -0.500000
v -0.300141 -0.500986 -0.500000
v -0.300141 -0.000986 0.299545
v -0.300141 -0.500986 0.299545
vn -0.0000 1.0000 -0.0000
vn -0.0000 -0.0000 1.0000
vn -1.0000 -0.0000 -0.0000
vn -0.0000 -1.0000 -0.0000
vn 1.0000 -0.0000 -0.0000
vn -0.0000 -0.0000 -1.0000
vt 1.305880 1.916436
vt 1.005647 1.916436
vt 1.005647 1.516541
vt 1.305880 1.516541
vt 1.405542 1.514568
vt 1.405542 1.014415
vt 1.705775 1.014415
vt 1.705775 1.514568
vt 1.405542 0.514262
vt 1.405542 0.014109
vt 1.805438 0.014109
vt 1.805438 0.514262
vt 2.006008 1.414311
vt 1.705775 1.414311
vt 2.006008 1.014415
vt 1.805438 1.014415
vt 1.405542 2.014722
vt 1.705775 2.014722
s 0
usemtl Material
f 1/1/1 5/2/1 7/3/1 3/4/1
f 4/5/2 3/6/2 7/7/2 8/8/2
f 8/9/3 7/10/3 5/11/3 6/12/3
f 6/13/4 2/14/4 4/7/4 8/15/4
f 2/6/5 1/9/5 3/12/5 4/16/5
f 6/17/6 5/5/6 1/8/6 2/18/6
o Cube.002
v -0.304084 0.250000 -0.500000
v -0.304084 -0.500986 -0.500000
v -0.304084 0.250000 0.299545
v -0.304084 -0.500986 0.299545
v -0.500000 0.250000 -0.500000
v -0.500000 -0.500986 -0.500000
v -0.500000 0.250000 0.299545
v -0.500000 -0.500986 0.299545
vn -0.0000 1.0000 -0.0000
vn -0.0000 -0.0000 1.0000
vn -1.0000 -0.0000 -0.0000
vn -0.0000 -1.0000 -0.0000
vn 1.0000 -0.0000 -0.0000
vn -0.0000 -0.0000 -1.0000
vt 0.102137 2.149954
vt 0.004149 2.149954
vt 0.004149 1.750059
vt 0.102137 1.750059
vt 2.003738 0.765325
vt 2.003738 0.014109
vt 2.101726 0.014109
vt 2.101726 0.765325
vt 0.004149 0.998842
vt 0.404045 0.998842
vt 0.404045 1.750059
vt 0.200125 2.149954
vt 0.200125 1.750059
vt 0.803940 0.998842
vt 0.803940 1.750059
vt 2.006008 1.765631
vt 2.006008 1.014415
vt 2.103996 1.014415
vt 2.103996 1.765631
s 0
usemtl Material
f 9/19/7 13/20/7 15/21/7 11/22/7
f 12/23/8 11/24/8 15/25/8 16/26/8
f 16/21/9 15/27/9 13/28/9 14/29/9
f 14/30/10 10/19/10 12/22/10 16/31/10
f 10/29/11 9/28/11 11/32/11 12/33/11
f 14/34/12 13/35/12 9/36/12 10/37/12
o Cube.003
v 0.500595 0.491690 0.299437
v 0.500595 -0.492742 0.299437
v 0.500595 0.491690 0.500000
v 0.500595 -0.492742 0.500000
v -0.500596 0.491690 0.299437
v -0.500596 -0.492742 0.299437
v -0.500596 0.491690 0.500000
v -0.500596 -0.492742 0.500000
vn -0.0000 1.0000 -0.0000
vn -0.0000 -0.0000 1.0000
vn -1.0000 -0.0000 -0.0000
vn -0.0000 -1.0000 -0.0000
vn 1.0000 -0.0000 -0.0000
vn -0.0000 -0.0000 -1.0000
vt 1.806088 1.414311
vt 1.806088 1.915060
vt 1.705775 1.915060
vt 1.705775 1.414311
vt 0.004149 0.998843
vt 0.004149 0.014109
vt 0.504898 0.014109
vt 0.504898 0.998843
vt 1.805438 0.998843
vt 1.805438 0.014109
vt 1.905750 0.014109
vt 1.905750 0.998843
vt 1.906401 1.414311
vt 1.906400 1.915060
vt 1.806088 1.915060
vt 1.806088 1.414311
vt 0.803940 1.983576
vt 0.803940 0.998843
vt 0.904252 0.998843
vt 0.904252 1.983576
vt 1.005647 0.014109
vt 1.005647 0.998843
s 0
usemtl Material
f 17/38/13 21/39/13 23/40/13 19/41/13
f 20/42/14 19/43/14 23/44/14 24/45/14
f 24/46/15 23/47/15 21/48/15 22/49/15
f 22/50/16 18/51/16 20/52/16 24/53/16
f 18/54/17 17/55/17 19/56/17 20/57/17
f 22/45/18 21/44/18 17/58/18 18/59/18
