# Blender 4.3.2
# www.blender.org
mtllib myfurniture_medicine_cabinet.mtl
o Cube
v 0.300000 0.400000 0.293779
v 0.300000 -0.400000 0.293779
v 0.300000 0.400000 0.493779
v 0.300000 -0.400000 0.493779
v -0.300000 0.400000 0.293779
v -0.300000 -0.400000 0.293779
v -0.300000 0.400000 0.493779
v -0.300000 -0.400000 0.493779
vn -0.0000 1.0000 -0.0000
vn -0.0000 -0.0000 1.0000
vn -1.0000 -0.0000 -0.0000
vn -0.0000 -1.0000 -0.0000
vn 1.0000 -0.0000 -0.0000
vn -0.0000 -0.0000 -1.0000
vt 0.261719 0.750000
vt 0.261719 1.000000
vt 0.011719 1.000000
vt 0.011719 0.750000
vt 0.253906 1.000000
vt 0.003906 1.000000
vt 0.003906 0.750000
vt 0.253906 0.750000
vt 0.257812 0.996094
vt 0.007812 0.996094
vt 0.007812 0.746094
vt 0.257812 0.746094
vt 0.250000 0.750000
vt 0.250000 1.000000
vt -0.000000 1.000000
vt 0.000000 0.750000
vt 0.253906 0.992188
vt 0.003906 0.992188
vt 0.003906 0.742188
vt 0.253906 0.742188
vt 0.000000 1.000000
vt 0.000000 0.750000
vt 0.250000 0.750000
s 0
usemtl Material
f 1/1/1 5/2/1 7/3/1 3/4/1
f 4/5/2 3/6/2 7/7/2 8/8/2
f 8/9/3 7/10/3 5/11/3 6/12/3
f 6/13/4 2/14/4 4/15/4 8/16/4
f 2/17/5 1/18/5 3/19/5 4/20/5
f 6/14/6 5/21/6 1/22/6 2/23/6
o Cube.001
v 0.310666 0.402039 0.251127
v 0.310666 -0.402039 0.251127
v 0.340000 0.440000 0.291127
v 0.340000 -0.440000 0.291127
v -0.310666 0.402039 0.251127
v -0.310666 -0.402039 0.251127
v -0.340000 0.440000 0.291127
v -0.340000 -0.440000 0.291127
v 0.340000 -0.440000 0.251127
v -0.340000 -0.440000 0.251127
v 0.340000 0.440000 0.251127
v -0.340000 0.440000 0.251127
v 0.310666 -0.402039 0.268513
v -0.310666 -0.402039 0.268513
v 0.310666 0.402039 0.268513
v -0.310666 0.402039 0.268513
vn -0.0000 1.0000 -0.0000
vn -0.0000 -0.0000 1.0000
vn -1.0000 -0.0000 -0.0000
vn -0.0000 -1.0000 -0.0000
vn 1.0000 -0.0000 -0.0000
vn -0.0000 -0.0000 -1.0000
vt 0.250000 0.000000
vt 0.250000 0.250000
vt 0.000000 0.250000
vt 0.000000 0.000000
vt 0.250000 0.996094
vt 0.000000 0.996094
vt 0.000000 0.746094
vt 0.250000 0.746094
vt 0.250000 0.253906
vt 0.000000 0.253906
vt 0.000000 0.003906
vt 0.250000 0.003906
vt 0.250000 -0.003906
vt 0.250000 0.246094
vt 0.000000 0.246094
vt 0.000000 -0.003906
vt 0.000000 0.253906
vt 0.000000 0.003906
vt 0.250000 0.003906
vt 0.132104 0.009681
vt 0.132104 0.238112
vt 0.023438 0.238112
vt 0.023438 0.009681
vt 0.239215 0.239216
vt 0.239216 0.010784
vt 0.250000 0.000000
vt 0.250000 0.250000
vt 0.010784 0.010784
vt 0.000000 0.000000
vt 0.010784 0.239216
vt -0.000000 0.250000
vt 0.945228 0.068359
vt 0.945228 0.363197
vt 0.724609 0.363197
vt 0.724609 0.068359
vt 0.132104 0.015456
vt 0.132104 0.243887
vt 0.023438 0.243887
vt 0.023438 0.015456
vt 0.240770 0.009681
vt 0.240770 0.238112
vt 0.132104 0.238112
vt 0.132104 0.243887
vt 0.132104 0.015456
vt 0.240770 0.015456
vt 0.240770 0.243887
s 0
usemtl Material
f 19/24/7 20/25/7 15/26/7 11/27/7
f 12/28/8 11/29/8 15/30/8 16/31/8
f 16/32/9 15/33/9 20/34/9 18/35/9
f 18/36/10 17/37/10 12/38/10 16/39/10
f 17/32/11 19/40/11 11/41/11 12/42/11
f 10/43/7 14/44/7 22/45/7 21/46/7
f 14/47/12 10/48/12 17/49/12 18/50/12
f 10/48/12 9/51/12 19/52/12 17/49/12
f 13/53/12 14/47/12 18/50/12 20/54/12
f 9/51/12 13/53/12 20/54/12 19/52/12
f 22/55/12 24/56/12 23/57/12 21/58/12
f 13/59/10 9/60/10 23/61/10 24/62/10
f 9/63/9 10/64/9 21/65/9 23/43/9
f 14/66/11 13/67/11 24/68/11 22/69/11
