# Blender 4.3.2
# www.blender.org
mtllib myfurniture_chest_of_drawers.mtl
o Cube
v 0.500000 0.500000 -0.004592
v 0.500000 -0.500000 -0.004592
v 0.500000 0.500000 0.495408
v 0.500000 -0.500000 0.495408
v -0.500000 0.500000 -0.004592
v -0.500000 -0.500000 -0.004592
v -0.500000 0.500000 0.495408
v -0.500000 -0.500000 0.495408
vn -0.0000 1.0000 -0.0000
vn -0.0000 -0.0000 1.0000
vn -1.0000 -0.0000 -0.0000
vn -0.0000 -1.0000 -0.0000
vn 1.0000 -0.0000 -0.0000
vn -0.0000 -0.0000 -1.0000
vt -1.929400 1.957640
vt -0.957640 1.957640
vt -0.957640 2.929400
vt -1.929400 2.929400
vt 0.014120 1.957640
vt 0.014120 2.929400
vt -0.957640 2.929400
vt -0.957640 1.957640
vt -0.957640 0.985880
vt -0.957640 1.957640
vt -1.929400 1.957640
vt -1.929400 0.985880
vt -0.957640 0.985880
vt 0.014120 0.985880
vt 0.014120 1.957640
vt -0.957640 1.957640
vt 0.985880 1.957640
vt 0.985880 2.929400
vt 0.985880 0.985880
vt 0.985880 1.957640
vt 0.014120 1.957640
vt 0.014120 0.985880
s 0
usemtl Material
f 1/1/1 5/2/1 7/3/1 3/4/1
f 4/5/2 3/6/2 7/7/2 8/8/2
f 8/9/3 7/10/3 5/11/3 6/12/3
f 6/13/4 2/14/4 4/15/4 8/16/4
f 2/17/5 1/18/5 3/6/5 4/5/5
f 6/19/6 5/20/6 1/21/6 2/22/6
o Cube.001
v 0.400000 0.150000 -0.042310
v 0.400000 -0.150000 -0.042310
v 0.400000 0.150000 -0.002310
v 0.400000 -0.150000 -0.002310
v -0.400000 0.150000 -0.042310
v -0.400000 -0.150000 -0.042310
v -0.400000 0.150000 -0.002310
v -0.400000 -0.150000 -0.002310
vn -0.0000 1.0000 -0.0000
vn -0.0000 -0.0000 1.0000
vn -1.0000 -0.0000 -0.0000
vn -0.0000 -1.0000 -0.0000
vn 1.0000 -0.0000 -0.0000
vn -0.0000 -0.0000 -1.0000
vt -1.929400 0.014120
vt -0.957640 0.014120
vt -0.957640 0.985880
vt -1.929400 0.985880
vt 0.014120 0.014120
vt 0.014120 0.985880
vt -0.957640 0.985880
vt -0.957640 0.014120
vt 0.985880 0.014120
vt 0.985880 0.985880
vt 0.014120 0.985880
vt 0.014120 0.014120
vt 0.985880 1.957640
vt 1.957640 1.957640
vt 1.957640 2.929400
vt 0.985880 2.929400
vt 1.957640 0.985880
vt 1.957640 1.957640
vt 0.985880 1.957640
vt 0.985880 0.985880
vt 1.957640 0.014120
vt 1.957640 0.985880
vt 0.985880 0.014120
s 0
usemtl Material
f 9/23/7 13/24/7 15/25/7 11/26/7
f 12/27/8 11/28/8 15/29/8 16/30/8
f 16/31/9 15/32/9 13/33/9 14/34/9
f 14/35/10 10/36/10 12/37/10 16/38/10
f 10/39/11 9/40/11 11/41/11 12/42/11
f 14/43/12 13/44/12 9/32/12 10/45/12
o Cube.002
v 0.400000 0.467915 -0.042310
v 0.400000 0.167915 -0.042310
v 0.400000 0.467915 -0.002310
v 0.400000 0.167915 -0.002310
v -0.400000 0.467915 -0.042310
v -0.400000 0.167915 -0.042310
v -0.400000 0.467915 -0.002310
v -0.400000 0.167915 -0.002310
vn -0.0000 1.0000 -0.0000
vn -0.0000 -0.0000 1.0000
vn -1.0000 -0.0000 -0.0000
vn -0.0000 -1.0000 -0.0000
vn 1.0000 -0.0000 -0.0000
vn -0.0000 -0.0000 -1.0000
vt -1.929400 -0.957640
vt -0.957640 -0.957640
vt -0.957640 0.014120
vt -1.929400 0.014120
vt 0.014120 -0.957640
vt 0.014120 0.014120
vt -0.957640 0.014120
vt 0.985880 -0.957640
vt 0.985880 0.014120
vt 0.014120 0.014120
vt 0.014120 -0.957640
vt 0.985880 -0.957640
vt 1.957640 -0.957640
vt 1.957640 0.014120
vt 0.985880 0.014120
vt 2.929399 1.957640
vt 2.929399 2.929400
vt 1.957640 2.929400
vt 1.957640 1.957640
vt 2.929400 0.985880
vt 2.929399 1.957640
vt 1.957640 0.985880
s 0
usemtl Material
f 17/46/13 21/47/13 23/48/13 19/49/13
f 20/50/14 19/51/14 23/52/14 24/47/14
f 24/53/15 23/54/15 21/55/15 22/56/15
f 22/57/16 18/58/16 20/59/16 24/60/16
f 18/61/17 17/62/17 19/63/17 20/64/17
f 22/65/18 21/66/18 17/64/18 18/67/18
o Cube.003
v 0.400000 -0.167915 -0.042310
v 0.400000 -0.467915 -0.042310
v 0.400000 -0.167915 -0.002310
v 0.400000 -0.467915 -0.002310
v -0.400000 -0.167915 -0.042310
v -0.400000 -0.467915 -0.042310
v -0.400000 -0.167915 -0.002310
v -0.400000 -0.467915 -0.002310
vn -0.0000 1.0000 -0.0000
vn -0.0000 -0.0000 1.0000
vn -1.0000 -0.0000 -0.0000
vn -0.0000 -1.0000 -0.0000
vn 1.0000 -0.0000 -0.0000
vn -0.0000 -0.0000 -1.0000
vt 1.957640 0.014120
vt 2.929400 0.014120
vt 2.929400 0.985880
vt 1.957640 0.985880
vt 2.929399 -0.957640
vt 2.929399 0.014120
vt 1.957640 0.014120
vt 1.957640 -0.957640
vt -0.957640 -1.929399
vt -0.957640 -0.957640
vt -1.929400 -0.957640
vt -1.929400 -1.929399
vt -0.957640 -1.929399
vt 0.014120 -1.929399
vt 0.014120 -0.957640
vt 0.985880 -1.929399
vt 0.985880 -0.957640
vt 0.014120 -0.957640
vt 0.014120 -1.929399
vt 1.957640 -1.929400
vt 1.957640 -0.957640
vt 0.985880 -0.957640
vt 0.985880 -1.929400
s 0
usemtl Material
f 25/68/19 29/69/19 31/70/19 27/71/19
f 28/72/20 27/73/20 31/74/20 32/75/20
f 32/76/21 31/77/21 29/78/21 30/79/21
f 30/80/22 26/81/22 28/82/22 32/77/22
f 26/83/23 25/84/23 27/85/23 28/86/23
f 30/87/24 29/88/24 25/89/24 26/90/24
